<svg width="52" height="52" viewBox="0 0 52 52" fill="none" xmlns="http://www.w3.org/2000/svg">
<path d="M1 16L1 36C1 44.2843 7.71573 51 16 51H36C44.2843 51 51 44.2843 51 36V16C51 7.71573 44.2843 1 36 1H16C7.71573 1 1 7.71573 1 16Z" fill="#EBEBEB" stroke="#E8E8E8" stroke-width="0.5"/>
<path d="M28.4921 26.3467C28.4922 26.5833 28.4456 26.8176 28.355 27.0363C28.2644 27.2549 28.1315 27.4535 27.9641 27.6207L23.6581 31.9257C23.6123 31.9724 23.5577 32.0096 23.4975 32.0351C23.4372 32.0606 23.3725 32.0739 23.3071 32.0742C23.2416 32.0745 23.1768 32.0619 23.1163 32.037C23.0558 32.0121 23.0008 31.9755 22.9546 31.9292C22.9083 31.883 22.8717 31.828 22.8468 31.7675C22.8219 31.707 22.8092 31.6421 22.8096 31.5767C22.8099 31.5113 22.8232 31.4466 22.8487 31.3863C22.8742 31.3261 22.9114 31.2715 22.9581 31.2257L27.2581 26.9257C27.4103 26.7732 27.4959 26.5666 27.4959 26.3512C27.4959 26.1357 27.4103 25.9291 27.2581 25.7767L22.9581 21.4767C22.9114 21.4309 22.8742 21.3763 22.8487 21.316C22.8232 21.2558 22.8099 21.1911 22.8096 21.1256C22.8092 21.0602 22.8219 20.9954 22.8468 20.9349C22.8717 20.8744 22.9083 20.8194 22.9546 20.7731C23.0008 20.7269 23.0558 20.6902 23.1163 20.6653C23.1768 20.6405 23.2416 20.6278 23.3071 20.6282C23.3725 20.6285 23.4372 20.6418 23.4975 20.6673C23.5577 20.6928 23.6123 20.73 23.6581 20.7767L27.9631 25.0697C28.1311 25.2372 28.2643 25.4362 28.3551 25.6554C28.4459 25.8745 28.4924 26.1095 28.4921 26.3467Z" fill="#415568" stroke="#415568" stroke-width="0.5"/>
</svg>
