<svg width="50" height="49" viewBox="0 0 50 49" fill="none" xmlns="http://www.w3.org/2000/svg">
<path d="M37 0.5H13C6.37258 0.5 1 5.87258 1 12.5V36.5C1 43.1274 6.37258 48.5 13 48.5H37C43.6274 48.5 49 43.1274 49 36.5V12.5C49 5.87258 43.6274 0.5 37 0.5Z" fill="white" stroke="#E8E8E8" stroke-width="0.5"/>
<path d="M24.6769 20.2088C26.1566 20.1588 27.5342 19.5464 28.5645 18.4782C29.616 17.3881 30.1801 15.9537 30.1528 14.4393C30.1258 12.943 29.5227 11.5419 28.4547 10.4941C27.363 9.42305 25.9145 8.84443 24.381 8.87204C24.369 8.87226 24.3569 8.87237 24.3449 8.87237C22.8242 8.87237 21.397 9.46307 20.326 10.5357C19.2562 11.6072 18.667 13.0329 18.667 14.5502C18.667 14.5521 18.667 14.554 18.667 14.5559C18.6628 16.0302 19.224 17.4268 20.2472 18.4883C21.2472 19.5257 22.5833 20.134 24.0189 20.2077C24.2384 20.1942 24.4654 20.1946 24.6769 20.2088ZM24.6216 22.2108C24.4486 22.1935 24.2411 22.1935 24.0509 22.2108C19.9246 22.0707 16.6553 18.6789 16.667 14.5502C16.667 10.3136 20.0909 6.87237 24.3449 6.87237C28.5808 6.79597 32.076 10.1676 32.1524 14.4032C32.2288 18.6388 28.8572 22.1344 24.6216 22.2108Z" fill="#415568"/>
<path d="M24.6434 28.2188C21.7943 28.2188 19.0393 28.9616 17.0839 30.2569C15.6332 31.2294 14.8351 32.4443 14.8369 33.678C14.8387 34.9077 15.6365 36.1151 17.0833 37.0777C17.0848 37.0786 17.0862 37.0796 17.0877 37.0806C19.0335 38.3825 21.7827 39.1292 24.6304 39.1292C27.4781 39.1292 30.2273 38.3825 32.1727 37.0808C33.6261 36.1079 34.4256 34.8919 34.4238 33.6569C34.4221 32.4272 33.6243 31.2199 32.1745 30.2553C30.2366 28.961 27.4916 28.2188 24.6434 28.2188ZM24.6434 26.2188C27.7819 26.2188 30.9162 27.0099 33.2853 28.5921C37.47 31.3762 37.47 35.9414 33.2853 38.7428C28.5298 41.9246 20.7309 41.9246 15.9755 38.7428C11.7907 35.9587 11.7907 31.3935 15.9755 28.5921C18.3619 27.0099 21.5048 26.2188 24.6434 26.2188Z" fill="#415568"/>
</svg>
