<svg width="39" height="40" viewBox="0 0 39 40" fill="none" xmlns="http://www.w3.org/2000/svg">
<path d="M13.7123 16.0705C15.4476 16.0152 17.0634 15.2987 18.2712 14.0465C19.5008 12.7717 20.1604 11.0945 20.1284 9.32363C20.0969 7.57397 19.3917 5.93561 18.1428 4.71035C16.8954 3.4865 15.2472 2.8125 13.5019 2.8125C13.4611 2.8125 13.42 2.81287 13.379 2.81361L13.3432 2.81393C11.5652 2.81393 9.89633 3.50467 8.64403 4.75892C7.39307 6.01182 6.70414 7.67886 6.70414 9.45294L6.70413 9.45861C6.69924 11.1829 7.35557 12.8162 8.55221 14.0577C9.72511 15.2746 11.2934 15.9865 12.9779 16.0694C13.2227 16.0538 13.4772 16.0541 13.7123 16.0705ZM13.6545 18.0725C13.4599 18.053 13.2264 18.053 13.0124 18.0725C8.36948 17.9149 4.69096 14.0985 4.70414 9.45294C4.70414 4.68592 8.55668 0.813933 13.3432 0.813933C18.109 0.727966 22.0421 4.52174 22.1281 9.28756C22.2141 14.0534 18.4203 17.9865 13.6545 18.0725Z" fill="#21384E"/>
<path d="M27.7618 4.70511C29.5501 4.69973 31.2688 5.39778 32.5468 6.64857C33.8249 7.89936 34.5599 9.60258 34.5931 11.3906C34.6263 13.1785 33.9551 14.9079 32.7244 16.2053C31.4936 17.5027 29.802 18.2641 28.0148 18.3251C27.8467 18.3056 27.6769 18.3056 27.5088 18.3251" stroke="#21384E" stroke-width="2" stroke-linecap="round"/>
<path d="M13.679 24.5811C10.4251 24.5811 7.27458 25.4322 5.03446 26.9163C3.32987 28.0587 2.39243 29.4997 2.39454 30.9745C2.39664 32.4445 3.33396 33.8769 5.03384 35.0078L5.03822 35.0107C7.26777 36.5025 10.4119 37.3581 13.6644 37.3581C16.9169 37.3581 20.061 36.5025 22.2901 35.011C23.9973 33.8682 24.9363 32.426 24.9342 30.95C24.9321 29.48 23.9948 28.0476 22.2919 26.9147C20.0713 25.4316 16.932 24.5811 13.679 24.5811ZM13.679 22.5811C17.2104 22.5811 20.7371 23.4712 23.4027 25.2516C28.1114 28.3842 28.1114 33.5209 23.4027 36.673C18.052 40.2531 9.27677 40.2531 3.92603 36.673C-0.782634 33.5403 -0.782634 28.4036 3.92603 25.2516C6.61112 23.4712 10.1475 22.5811 13.679 22.5811Z" fill="#21384E"/>
<path d="M31.5166 35.8371C32.8986 35.5652 34.202 34.9867 35.3306 34.1441C36.0285 33.6987 36.6029 33.0846 37.0008 32.3586C37.3987 31.6326 37.6073 30.818 37.6073 29.9901C37.6073 29.1622 37.3987 28.3476 37.0008 27.6216C36.6029 26.8956 36.0285 26.2815 35.3306 25.8361C34.2132 25.0159 32.9326 24.4454 31.5756 24.1631" stroke="#21384E" stroke-width="2" stroke-linecap="round"/>
</svg>
