<svg width="32" height="32" viewBox="0 0 32 32" fill="none" xmlns="http://www.w3.org/2000/svg">
<path d="M31.002 16C31.002 7.71573 24.2862 1 16.002 1C7.71768 1 1.00195 7.71573 1.00195 16C1.00195 24.2843 7.71768 31 16.002 31C24.2862 31 31.002 24.2843 31.002 16Z" fill="#F9F9F9" stroke="#E9E9E9"/>
<path d="M16.0028 18.8396C15.7662 18.8397 15.5318 18.7931 15.3132 18.7025C15.0946 18.6119 14.896 18.4791 14.7288 18.3116L10.4288 14.0116C10.3821 13.9658 10.3449 13.9112 10.3194 13.851C10.2939 13.7907 10.2806 13.726 10.2803 13.6606C10.2799 13.5952 10.2926 13.5303 10.3175 13.4698C10.3424 13.4093 10.379 13.3543 10.4253 13.3081C10.4715 13.2618 10.5265 13.2252 10.587 13.2003C10.6475 13.1754 10.7123 13.1628 10.7778 13.1631C10.8432 13.1634 10.9079 13.1767 10.9682 13.2022C11.0284 13.2277 11.083 13.2649 11.1288 13.3116L15.4288 17.6116C15.5812 17.7639 15.7879 17.8494 16.0033 17.8494C16.2187 17.8494 16.4254 17.7639 16.5778 17.6116L20.8778 13.3116C20.9236 13.2649 20.9782 13.2277 21.0385 13.2022C21.0987 13.1767 21.1634 13.1634 21.2288 13.1631C21.2943 13.1628 21.3591 13.1754 21.4196 13.2003C21.4801 13.2252 21.5351 13.2618 21.5814 13.3081C21.6276 13.3543 21.6643 13.4093 21.6891 13.4698C21.714 13.5303 21.7267 13.5952 21.7263 13.6606C21.726 13.726 21.7127 13.7907 21.6872 13.851C21.6617 13.9112 21.6245 13.9658 21.5778 14.0116L17.2778 18.3116C17.1105 18.4792 16.9117 18.6121 16.6929 18.7027C16.4741 18.7933 16.2396 18.8398 16.0028 18.8396Z" fill="#415568" stroke="#3F5365" stroke-width="0.5"/>
</svg>
