<svg width="26" height="26" viewBox="0 0 26 26" fill="none" xmlns="http://www.w3.org/2000/svg">
<path d="M13.002 20.9535V16.9795" stroke="#415568" stroke-width="2" stroke-linecap="round"/>
<path d="M12.989 2C12.5119 2 12.0636 2.14269 11.7582 2.39227L2.7449 9.74931C2.2902 10.1177 1.91492 11.1279 2.01479 11.7147L2.0168 11.7268L3.74493 22.2682C3.89793 23.1907 4.82239 24 5.72329 24H20.2811C21.1647 24 22.1074 23.1741 22.2596 22.267L23.9868 11.7316C24.0809 11.1356 23.7034 10.1149 23.251 9.74238L14.2434 2.4033C13.9306 2.14704 13.4734 2.00004 12.9892 2H12.989ZM12.9893 1.12018e-08C13.9001 6.67684e-05 14.8135 0.284887 15.5108 0.856131L24.5184 8.19528C25.5193 9.01663 26.1692 10.7521 25.9612 12.0503L24.2325 22.5954C23.9205 24.4633 22.1398 26 20.2811 26H5.72329C3.85157 26 2.08384 24.4765 1.77188 22.5954L0.0431479 12.0503C-0.177822 10.7521 0.472078 9.01663 1.48593 8.19528L10.4936 0.842882C11.1805 0.281443 12.0837 -6.48386e-05 12.9893 1.12018e-08Z" fill="#415568"/>
</svg>
