<svg width="25" height="26" viewBox="0 0 25 26" fill="none" xmlns="http://www.w3.org/2000/svg">
<path d="M8.69453 9.73546C10.5367 9.65828 11.9953 8.1186 11.9618 6.26524C11.9456 5.36498 11.5828 4.522 10.9402 3.89159C10.2833 3.24708 9.41158 2.89901 8.48922 2.91561L8.45308 2.91594C6.56898 2.91594 5.03615 4.44877 5.03615 6.33287L5.03614 6.33854C5.03363 7.22485 5.37099 8.0644 5.98608 8.70254C6.58011 9.31883 7.3714 9.68316 8.22278 9.73447C8.38026 9.72615 8.5414 9.72647 8.69453 9.73546ZM8.64828 11.7376C8.52629 11.7254 8.37989 11.7254 8.24568 11.7376C5.33443 11.6388 3.02789 9.24578 3.03615 6.33287C3.03615 3.3438 5.45181 0.915938 8.45308 0.915938C11.4414 0.862012 13.9076 3.24085 13.9615 6.22917C14.0154 9.21749 11.6366 11.6837 8.64828 11.7376Z" fill="#415568"/>
<path d="M17.4939 3.35596C18.609 3.36228 19.6773 3.80431 20.4709 4.58764C21.2644 5.37097 21.7202 6.43352 21.741 7.54836C21.7617 8.66321 21.3458 9.74199 20.5819 10.5543C19.8181 11.3666 18.7669 11.8481 17.6529 11.896C17.5476 11.8838 17.4413 11.8838 17.3359 11.896" stroke="#415568" stroke-width="2" stroke-linecap="round"/>
<path d="M8.66373 16.5649C6.76699 16.5649 4.9424 17.053 3.6569 17.9041C2.80285 18.477 2.33303 19.1597 2.33399 19.8268C2.33494 20.4913 2.80449 21.1692 3.65615 21.7358L3.66053 21.7388C4.93886 22.5941 6.75913 23.0846 8.65458 23.0846C10.55 23.0846 12.3703 22.5941 13.6482 21.739C14.5049 21.1656 14.9761 20.4818 14.9752 19.8136C14.9742 19.1492 14.5047 18.4712 13.65 17.9026C12.3772 17.0525 10.5598 16.5649 8.66373 16.5649ZM8.66373 14.5649C10.8781 14.5649 13.0894 15.1231 14.7608 16.2394C17.7133 18.2037 17.7133 21.4246 14.7608 23.401C11.4057 25.6459 5.90342 25.6459 2.54834 23.401C-0.404133 21.4368 -0.404133 18.2159 2.54834 16.2394C4.23198 15.1231 6.44938 14.5649 8.66373 14.5649Z" fill="#415568"/>
<path d="M19.8477 22.8757C20.714 22.7054 21.5311 22.3428 22.2387 21.8147C22.6764 21.5354 23.0367 21.1503 23.2863 20.695C23.5359 20.2397 23.6667 19.7289 23.6667 19.2097C23.6667 18.6904 23.5359 18.1796 23.2863 17.7243C23.0367 17.269 22.6764 16.8839 22.2387 16.6047C21.5379 16.0904 20.7347 15.7326 19.8837 15.5557" stroke="#415568" stroke-width="2" stroke-linecap="round"/>
</svg>
