<svg width="40" height="40" viewBox="0 0 40 40" fill="none" xmlns="http://www.w3.org/2000/svg">
<path d="M19.9998 23.7205H21.8598C22.8457 23.7176 23.7905 23.3247 24.4877 22.6275C25.1849 21.9303 25.5778 20.9855 25.5807 19.9995V1.39453H8.83675C7.51293 1.39465 6.21315 1.74822 5.07168 2.41872C3.93022 3.08921 2.98848 4.05232 2.34375 5.20853" stroke="#21384E" stroke-width="2" stroke-linecap="round" stroke-linejoin="round"/>
<path d="M1.39454 29.3016C1.39361 30.0346 1.53728 30.7606 1.8173 31.438C2.09732 32.1154 2.5082 32.7309 3.02641 33.2493C3.54463 33.7677 4.16 34.1788 4.8373 34.4591C5.51461 34.7394 6.24054 34.8833 6.97354 34.8826H8.83354C8.83354 33.8958 9.22557 32.9493 9.92339 32.2515C10.6212 31.5537 11.5677 31.1616 12.5545 31.1616C13.5414 31.1616 14.4879 31.5537 15.1857 32.2515C15.8835 32.9493 16.2755 33.8958 16.2755 34.8826H23.7175C23.7175 33.8958 24.1096 32.9493 24.8074 32.2515C25.5052 31.5537 26.4517 31.1616 27.4385 31.1616C28.4254 31.1616 29.3719 31.5537 30.0697 32.2515C30.7675 32.9493 31.1595 33.8958 31.1595 34.8826H33.0195C33.7527 34.8836 34.4788 34.7398 35.1564 34.4597C35.8339 34.1795 36.4495 33.7685 36.968 33.25C37.4864 32.7316 37.8974 32.116 38.1776 31.4385C38.4577 30.7609 38.6015 30.0348 38.6005 29.3016V23.7206H33.0225C32.5297 23.7191 32.0575 23.5226 31.7091 23.1741C31.3606 22.8256 31.1641 22.3534 31.1625 21.8606V16.2736C31.1641 15.7808 31.3606 15.3086 31.7091 14.9602C32.0575 14.6117 32.5297 14.4152 33.0225 14.4136H35.4225L32.2415 8.85063C31.9134 8.28166 31.4416 7.80883 30.8734 7.47943C30.3051 7.15003 29.6603 6.97562 29.0035 6.97363H25.5805V19.9996C25.5776 20.9856 25.1847 21.9304 24.4875 22.6276C23.7903 23.3248 22.8455 23.7177 21.8595 23.7206H19.9995" stroke="#21384E" stroke-width="2" stroke-linecap="round" stroke-linejoin="round"/>
<path d="M12.5579 38.6031C13.2939 38.6031 14.0133 38.3849 14.6252 37.976C15.2371 37.5672 15.714 36.986 15.9957 36.3061C16.2773 35.6262 16.351 34.878 16.2074 34.1562C16.0638 33.4344 15.7094 32.7714 15.1891 32.251C14.6687 31.7306 14.0056 31.3762 13.2838 31.2326C12.562 31.0891 11.8139 31.1627 11.1339 31.4444C10.454 31.726 9.87288 32.2029 9.46402 32.8149C9.05515 33.4268 8.83691 34.1462 8.83691 34.8821C8.83691 35.869 9.22895 36.8155 9.92677 37.5133C10.6246 38.2111 11.571 38.6031 12.5579 38.6031V38.6031Z" stroke="#21384E" stroke-width="2" stroke-linecap="round" stroke-linejoin="round"/>
<path d="M27.4407 38.6031C28.1767 38.6031 28.8961 38.3849 29.508 37.976C30.1199 37.5672 30.5968 36.986 30.8785 36.3061C31.1601 35.6262 31.2338 34.878 31.0902 34.1562C30.9467 33.4344 30.5923 32.7714 30.0719 32.251C29.5515 31.7306 28.8885 31.3762 28.1667 31.2326C27.4449 31.0891 26.6967 31.1627 26.0168 31.4444C25.3368 31.726 24.7557 32.2029 24.3468 32.8149C23.938 33.4268 23.7197 34.1462 23.7197 34.8821C23.7197 35.869 24.1118 36.8155 24.8096 37.5133C25.5074 38.2111 26.4539 38.6031 27.4407 38.6031V38.6031Z" stroke="#21384E" stroke-width="2" stroke-linecap="round" stroke-linejoin="round"/>
<path d="M38.6031 19.9991V23.7201H33.0221C32.5293 23.7185 32.0571 23.522 31.7086 23.1736C31.3602 22.8251 31.1637 22.3529 31.1621 21.8601V16.2731C31.1637 15.7803 31.3602 15.3081 31.7086 14.9596C32.0571 14.6111 32.5293 14.4147 33.0221 14.4131H35.4221L38.6031 19.9991Z" stroke="#21384E" stroke-width="2" stroke-linecap="round" stroke-linejoin="round"/>
<path d="M1.39453 12.5576H12.5575" stroke="#21384E" stroke-width="2" stroke-linecap="round" stroke-linejoin="round"/>
<path d="M1.39453 18.1387H8.83653" stroke="#21384E" stroke-width="2" stroke-linecap="round" stroke-linejoin="round"/>
<path d="M1.39453 23.7207H5.11553" stroke="#21384E" stroke-width="2" stroke-linecap="round" stroke-linejoin="round"/>
</svg>
