<svg width="49" height="50" viewBox="0 0 49 50" fill="none" xmlns="http://www.w3.org/2000/svg">
<path d="M36.5 1H12.5C5.87258 1 0.5 6.37258 0.5 13V37C0.5 43.6274 5.87258 49 12.5 49H36.5C43.1274 49 48.5 43.6274 48.5 37V13C48.5 6.37258 43.1274 1 36.5 1Z" fill="white" stroke="#E8E8E8" stroke-width="0.5"/>
<path d="M29.8024 35.1029H19.1994C14.9584 35.1029 13.8994 34.0429 13.8994 29.8029V27.6809C13.8994 23.4399 14.9594 22.3809 19.1994 22.3809H29.7994C34.0404 22.3809 35.0994 23.4409 35.0994 27.6809V29.8019C35.1044 34.0429 34.0444 35.1029 29.8024 35.1029Z" stroke="#415568" stroke-width="2" stroke-linecap="round" stroke-linejoin="round"/>
<path d="M18.1387 22.3795V20.2585C18.1387 16.7485 19.1987 13.8965 24.5007 13.8965C29.2717 13.8965 30.8627 16.0175 30.8627 19.1965" stroke="#415568" stroke-width="2" stroke-linecap="round" stroke-linejoin="round"/>
<path d="M24.5006 31.3918C25.0249 31.3918 25.5375 31.2364 25.9734 30.9451C26.4094 30.6538 26.7492 30.2397 26.9498 29.7553C27.1505 29.2709 27.203 28.7379 27.1007 28.2237C26.9984 27.7094 26.7459 27.2371 26.3751 26.8663C26.0044 26.4956 25.532 26.2431 25.0178 26.1408C24.5036 26.0385 23.9705 26.091 23.4861 26.2916C23.0017 26.4923 22.5877 26.8321 22.2964 27.268C22.0051 27.704 21.8496 28.2165 21.8496 28.7408C21.8496 29.4439 22.1289 30.1182 22.6261 30.6154C23.1232 31.1125 23.7975 31.3918 24.5006 31.3918Z" stroke="#415568" stroke-width="2" stroke-linecap="round" stroke-linejoin="round"/>
</svg>
