<svg width="21" height="22" viewBox="0 0 21 22" fill="none" xmlns="http://www.w3.org/2000/svg">
<path d="M15.5877 19.5155C16.1864 19.5155 16.7423 19.4043 17.2555 19.1905C17.7773 18.9766 18.2391 18.6431 18.6582 18.1812C18.9063 17.9075 19.0945 17.6167 19.2399 17.3088C19.3853 17.0009 19.4537 16.6844 19.4537 16.3765V16.3765C19.4537 16.137 19.4024 15.9232 19.3168 15.7093C19.2228 15.4955 19.0688 15.3159 18.8464 15.1619L16.0153 13.1519C15.8015 13.0065 15.6048 12.8953 15.4166 12.8184C15.2284 12.7414 15.0574 12.7072 14.8949 12.7072C14.681 12.7072 14.4843 12.767 14.2876 12.8868C14.0909 12.9894 13.8856 13.1519 13.6718 13.3658L13.0217 14.0072C12.9276 14.1013 12.8164 14.1527 12.671 14.1527C12.5941 14.1527 12.5256 14.1441 12.4572 14.1184C12.3973 14.0928 12.346 14.0671 12.3033 14.05C12.0124 13.8961 11.6447 13.6395 11.1999 13.2631C10.7466 12.8782 10.3018 12.4591 9.83995 12.0058C9.39518 11.5525 8.98463 11.0992 8.59974 10.6544C8.2234 10.2097 7.95825 9.84187 7.8043 9.55961C7.78719 9.50829 7.76153 9.45697 7.73587 9.38855C7.71877 9.32012 7.71021 9.26025 7.71021 9.19183C7.71021 9.05498 7.75298 8.94378 7.84706 8.8497L8.4971 8.174C8.70238 7.96873 8.86489 7.76345 8.97608 7.56673C9.09582 7.37 9.1557 7.16473 9.1557 6.95945C9.1557 6.79694 9.11293 6.61733 9.03595 6.43771C8.95897 6.24954 8.84778 6.05282 8.69383 5.83899L6.70949 3.04211C6.55554 2.81973 6.35881 2.66577 6.13643 2.56313C5.9226 2.4605 5.68312 2.40918 5.44363 2.40918C4.81069 2.40918 4.21197 2.67432 3.66457 3.21317C3.21125 3.64083 2.88623 4.11981 2.68096 4.64155C2.47568 5.15474 2.37305 5.71069 2.37305 6.29231C2.37305 7.18184 2.57832 8.11413 2.98887 9.08919C3.39942 10.0557 3.96393 11.0308 4.66529 12.0058C5.38897 12.997 6.1867 13.932 7.05162 14.8027C7.92549 15.6701 8.86327 16.4706 9.85705 17.1976C10.8321 17.9075 11.8157 18.472 12.7993 18.8911C13.7829 19.3102 14.7152 19.5155 15.5877 19.5155ZM15.5877 21.0155C14.5066 21.0155 13.3706 20.765 12.2113 20.271C11.1213 19.8066 10.0322 19.1805 8.97416 18.4102C7.92053 17.6395 6.91908 16.7846 5.99491 15.8673L5.98743 15.8598C5.0721 14.9384 4.21966 13.9393 3.45382 12.8903L3.44758 12.8817C2.67384 11.806 2.055 10.7273 1.60826 9.67564C1.11979 8.51553 0.873047 7.37868 0.873047 6.29231C0.873047 5.51737 1.01226 4.77575 1.28683 4.08799C1.57425 3.35943 2.024 2.70172 2.62364 2.13305C3.4421 1.33227 4.41685 0.90918 5.44363 0.90918C5.90667 0.90918 6.36704 1.01185 6.7758 1.2062C7.24993 1.42722 7.64047 1.75472 7.93694 2.17991L9.91415 4.96674C10.1312 5.26884 10.2967 5.56075 10.4197 5.85864C10.5763 6.22791 10.6557 6.59822 10.6557 6.95945C10.6557 7.43081 10.5226 7.90242 10.2704 8.32505C10.0962 8.62828 9.86039 8.93035 9.56901 9.22337L9.46089 9.33577C9.53751 9.43486 9.62949 9.54904 9.73962 9.67936C10.1445 10.147 10.5245 10.5613 10.9009 10.9453C11.4053 11.4401 11.7973 11.8026 12.1707 12.1197C12.301 12.2299 12.416 12.3218 12.5166 12.3983L12.6155 12.3007C12.9307 11.9862 13.237 11.75 13.5502 11.5801C13.9723 11.3326 14.4244 11.2072 14.8949 11.2072C15.2564 11.2072 15.6231 11.2822 15.9846 11.43C16.2652 11.5449 16.5512 11.7024 16.8588 11.9116L16.8837 11.9289L19.7084 13.9343C20.1546 14.2452 20.4847 14.6391 20.6898 15.1052L20.7096 15.1523C20.8738 15.563 20.9537 15.9634 20.9537 16.3765C20.9537 16.9178 20.8334 17.447 20.5962 17.9493C20.3822 18.4026 20.1041 18.8195 19.7697 19.1885C19.2023 19.8138 18.5492 20.2807 17.8279 20.577C17.1279 20.868 16.3742 21.0155 15.5877 21.0155Z" fill="#415568"/>
<path d="M16.4862 8.39341C16.3761 7.65352 16.0245 6.97077 15.4862 6.45141C15.2402 6.15282 14.9373 5.90606 14.5952 5.72547C14.2531 5.54488 13.8785 5.43405 13.4932 5.39941" stroke="#415568" stroke-width="1.5" stroke-linecap="round" stroke-linejoin="round"/>
<path d="M19.4763 8.39618C19.4768 7.60981 19.3223 6.83105 19.0216 6.10443C18.7209 5.37782 18.2799 4.71761 17.7239 4.16156C17.1678 3.60551 16.5076 3.16453 15.781 2.86384C15.0544 2.56315 14.2756 2.40866 13.4893 2.40918" stroke="#415568" stroke-width="1.5" stroke-linecap="round" stroke-linejoin="round"/>
</svg>
