<svg width="30" height="26" viewBox="0 0 30 26" fill="none" xmlns="http://www.w3.org/2000/svg">
<path d="M15.0346 23.1618L17.0647 20.7531C17.0676 20.7497 17.0705 20.7463 17.0734 20.7429C17.7657 19.9324 18.8586 19.4484 19.997 19.4484H20.7059C22.9106 19.4484 24.5225 19.0088 25.4969 18.1417C26.4713 17.2746 26.9653 15.8402 26.9653 13.8784V7.57004C26.9653 5.60819 26.4713 4.1738 25.4969 3.30672C24.5225 2.43965 22.9106 2 20.7059 2H9.36336C7.15871 2 5.5468 2.43965 4.57241 3.30672C3.59802 4.1738 3.10397 5.60819 3.10397 7.57004V13.8784C3.10397 16.2922 3.54858 17.8118 4.46318 18.5239C5.28435 19.1633 6.79563 19.4484 9.36336 19.4484H10.0723C11.1813 19.4484 12.3595 19.9754 13.0116 20.7614L15.0346 23.1618ZM15.0346 25.3092C14.4179 25.3092 13.8011 25.0316 13.3333 24.4764L11.2065 21.9531C10.9797 21.6755 10.4551 21.4484 10.0723 21.4484H9.36336C3.69208 21.4484 0.856445 20.1868 0.856445 13.8784V7.57004C0.856445 2.52335 3.69208 0 9.36336 0H20.7059C26.3772 0 29.2128 2.52335 29.2128 7.57004V13.8784C29.2128 18.9251 26.3772 21.4484 20.7059 21.4484H19.997C19.5575 21.4484 19.1321 21.6377 18.8628 21.9531L16.736 24.4764C16.2681 25.0316 15.6514 25.3092 15.0346 25.3092Z" fill="#415568"/>
<path d="M7.94531 7.56738H22.1238" stroke="#415568" stroke-width="2" stroke-linecap="round" stroke-linejoin="round"/>
<path d="M7.94531 13.8789H16.4522" stroke="#415568" stroke-width="2" stroke-linecap="round" stroke-linejoin="round"/>
</svg>
