<svg width="44" height="45" viewBox="0 0 44 45" fill="none" xmlns="http://www.w3.org/2000/svg">
<path d="M31.5 1H12.5C5.87258 1 0.5 6.37258 0.5 13V32C0.5 38.6274 5.87258 44 12.5 44H31.5C38.1274 44 43.5 38.6274 43.5 32V13C43.5 6.37258 38.1274 1 31.5 1Z" fill="#F8F8F8" stroke="#E8E8E8" stroke-width="0.5"/>
<path d="M31.5 1H12.5C5.87258 1 0.5 6.37258 0.5 13V32C0.5 38.6274 5.87258 44 12.5 44H31.5C38.1274 44 43.5 38.6274 43.5 32V13C43.5 6.37258 38.1274 1 31.5 1Z" fill="#F8F8F8" stroke="#E8E8E8" stroke-width="0.5"/>
<path d="M21.2119 11.7598C20.8284 11.7598 20.507 11.8268 20.3586 11.8932C20.3568 11.8941 20.3549 11.8949 20.353 11.8957L12.2695 15.4854C12.2341 15.501 12.2005 15.5163 12.1687 15.5315C12.2018 15.5472 12.2369 15.5633 12.2739 15.5796L20.353 19.1673C20.3549 19.1681 20.3568 19.169 20.3586 19.1698C20.507 19.2362 20.8284 19.3033 21.2119 19.3033C21.5954 19.3033 21.9168 19.2362 22.0652 19.1698C22.067 19.169 22.0689 19.1681 22.0708 19.1673L30.1543 15.5777C30.1897 15.5621 30.2232 15.5467 30.2551 15.5316C30.2219 15.5158 30.1869 15.4997 30.1499 15.4834L22.0708 11.8957C22.0689 11.8949 22.067 11.8941 22.0652 11.8932C21.9168 11.8268 21.5954 11.7598 21.2119 11.7598ZM21.2119 9.75977C21.8178 9.75977 22.4238 9.86246 22.8825 10.0679L30.9616 13.6555C33.2894 14.6825 33.2894 16.3805 30.9616 17.4075L22.8825 20.9952C21.965 21.406 20.4588 21.406 19.5413 20.9952L11.4622 17.4075C9.13434 16.3805 9.13434 14.6825 11.4622 13.6555L19.5413 10.0679C20 9.86246 20.606 9.75977 21.2119 9.75977Z" fill="#415568"/>
<path d="M9.17505 21.1279C9.20688 21.7446 9.40089 22.3418 9.73749 22.8595C10.0741 23.3771 10.5413 23.7967 11.092 24.0759L20.392 28.2109C20.741 28.3666 21.1189 28.4471 21.501 28.4471C21.8832 28.4471 22.2611 28.3666 22.6101 28.2109L31.91 24.0759C32.46 23.7962 32.9265 23.3763 33.2623 22.8588C33.5982 22.3412 33.7916 21.7441 33.823 21.1279" stroke="#415568" stroke-width="2" stroke-linecap="round" stroke-linejoin="round"/>
<path d="M9.17505 27.9785C9.17617 28.6019 9.35779 29.2117 9.69798 29.7341C10.0382 30.2566 10.5224 30.6693 11.092 30.9225L20.392 35.0575C20.741 35.2132 21.1189 35.2937 21.501 35.2937C21.8832 35.2937 22.2611 35.2132 22.6101 35.0575L31.91 30.9225C32.4797 30.6693 32.9639 30.2566 33.3041 29.7341C33.6443 29.2117 33.8259 28.6019 33.827 27.9785" stroke="#415568" stroke-width="2" stroke-linecap="round" stroke-linejoin="round"/>
</svg>
