<svg width="25" height="33" viewBox="0 0 25 33" fill="none" xmlns="http://www.w3.org/2000/svg">
<path d="M12.3796 4.41895C8.41452 4.41895 5.18871 7.64475 5.18871 11.6098V16.0367C5.18871 17.3148 4.69207 19.1116 4.03349 20.2164L4.02899 20.2239L2.26771 23.1491C2.06275 23.4898 2.00365 23.8241 2.1013 24.0904C2.20035 24.3606 2.46484 24.5808 2.84622 24.7106C5.92593 25.7391 9.13072 26.2606 12.3719 26.2606C15.6145 26.2606 18.8208 25.7386 21.9017 24.7093L21.9077 24.7073C22.3211 24.5706 22.4938 24.2514 22.5599 24.0733C22.6271 23.8923 22.7054 23.5314 22.4764 23.1496L20.6959 20.1917C20.0543 19.0796 19.5704 17.2934 19.5704 16.0367V11.6098C19.5704 9.69921 18.8197 7.89622 17.4564 6.53297C16.0931 5.16972 14.2902 4.41895 12.3796 4.41895ZM12.3796 2.41895H12.3796C17.4345 2.41895 21.5704 6.55483 21.5704 11.6098V16.0367C21.5704 16.9711 21.9687 18.3957 22.4282 19.1923L24.1898 22.118C25.2008 23.803 24.3889 25.9935 22.5355 26.6062C15.9334 28.812 8.81046 28.812 2.20836 26.6062C0.217008 25.9322 -0.53358 23.9255 0.55401 22.118L2.31559 19.1923C2.79044 18.3957 3.18871 16.9711 3.18871 16.0367V11.6098C3.18871 6.53951 7.30929 2.41895 12.3796 2.41895Z" fill="#415568"/>
<path d="M15.2136 2.8627C13.3612 2.33513 11.3983 2.33513 9.5459 2.8627C9.99012 1.72916 11.093 0.932617 12.3797 0.932617C13.6665 0.932617 14.7694 1.72916 15.2136 2.8627Z" fill="#415568"/>
<path d="M16.9752 27.1621C16.9228 28.3457 16.4157 29.4635 15.5596 30.2825C14.7035 31.1016 13.5645 31.5587 12.3797 31.5587C11.1949 31.5587 10.0558 31.1016 9.19972 30.2825C8.34363 29.4635 7.83657 28.3457 7.78418 27.1621" stroke="#415568" stroke-width="2" stroke-miterlimit="10"/>
</svg>
