<svg width="50" height="50" viewBox="0 0 50 50" fill="none" xmlns="http://www.w3.org/2000/svg">
<path d="M37 1H13C6.37258 1 1 6.37258 1 13V37C1 43.6274 6.37258 49 13 49H37C43.6274 49 49 43.6274 49 37V13C49 6.37258 43.6274 1 37 1Z" fill="white" stroke="#E8E8E8" stroke-width="0.5"/>
<path d="M37.553 24.4993C37.553 26.9823 36.8167 29.4094 35.4372 31.4739C34.0578 33.5384 32.0971 35.1475 29.8032 36.0977C27.5092 37.0479 24.985 37.2965 22.5498 36.8121C20.1146 36.3277 17.8776 35.132 16.1219 33.3763C14.3662 31.6206 13.1706 29.3837 12.6862 26.9485C12.2018 24.5132 12.4504 21.989 13.4006 19.6951C14.3508 17.4012 15.9598 15.4405 18.0243 14.061C20.0888 12.6816 22.516 11.9453 24.999 11.9453C28.3281 11.9466 31.5205 13.2697 33.8745 15.6238C36.2286 17.9778 37.5516 21.1702 37.553 24.4993Z" stroke="#415568" stroke-width="2.254" stroke-linecap="round" stroke-linejoin="round"/>
<path d="M29.658 28.4923L25.766 26.1703C25.4076 25.9305 25.1098 25.6106 24.8964 25.2359C24.6829 24.8611 24.5595 24.4419 24.536 24.0113V18.8633" stroke="#415568" stroke-width="2.254" stroke-linecap="round" stroke-linejoin="round"/>
</svg>
