<svg width="32" height="32" viewBox="0 0 32 32" fill="none" xmlns="http://www.w3.org/2000/svg">
<path d="M30.8571 27.4286H1.14286C0.839753 27.4286 0.549062 27.549 0.334735 27.7633C0.120408 27.9776 0 28.2683 0 28.5714L0 30.8571C0 31.1602 0.120408 31.4509 0.334735 31.6653C0.549062 31.8796 0.839753 32 1.14286 32H30.8571C31.1602 32 31.4509 31.8796 31.6653 31.6653C31.8796 31.4509 32 31.1602 32 30.8571V28.5714C32 28.2683 31.8796 27.9776 31.6653 27.7633C31.4509 27.549 31.1602 27.4286 30.8571 27.4286ZM30.8571 18.2857H1.14286C0.839753 18.2857 0.549062 18.4061 0.334735 18.6204C0.120408 18.8348 0 19.1255 0 19.4286L0 21.7143C0 22.0174 0.120408 22.3081 0.334735 22.5224C0.549062 22.7367 0.839753 22.8571 1.14286 22.8571H30.8571C31.1602 22.8571 31.4509 22.7367 31.6653 22.5224C31.8796 22.3081 32 22.0174 32 21.7143V19.4286C32 19.1255 31.8796 18.8348 31.6653 18.6204C31.4509 18.4061 31.1602 18.2857 30.8571 18.2857ZM30.8571 9.14286H1.14286C0.839753 9.14286 0.549062 9.26327 0.334735 9.47759C0.120408 9.69192 0 9.98261 0 10.2857L0 12.5714C0 12.8745 0.120408 13.1652 0.334735 13.3796C0.549062 13.5939 0.839753 13.7143 1.14286 13.7143H30.8571C31.1602 13.7143 31.4509 13.5939 31.6653 13.3796C31.8796 13.1652 32 12.8745 32 12.5714V10.2857C32 9.98261 31.8796 9.69192 31.6653 9.47759C31.4509 9.26327 31.1602 9.14286 30.8571 9.14286ZM30.8571 0H1.14286C0.839753 0 0.549062 0.120408 0.334735 0.334735C0.120408 0.549062 0 0.839753 0 1.14286L0 3.42857C0 3.73168 0.120408 4.02237 0.334735 4.23669C0.549062 4.45102 0.839753 4.57143 1.14286 4.57143H30.8571C31.1602 4.57143 31.4509 4.45102 31.6653 4.23669C31.8796 4.02237 32 3.73168 32 3.42857V1.14286C32 0.839753 31.8796 0.549062 31.6653 0.334735C31.4509 0.120408 31.1602 0 30.8571 0Z" fill="#2C3131"/>
</svg>
