<svg width="14" height="14" viewBox="0 0 14 14" fill="none" xmlns="http://www.w3.org/2000/svg">
<path d="M8.7228 12.4445C9.99137 12.4445 10.8279 12.2246 11.2802 11.7723C11.7324 11.3201 11.9523 10.4836 11.9523 9.21498V5.35224C11.9523 4.08367 11.7324 3.24715 11.2802 2.79489C10.8279 2.34262 9.99137 2.12277 8.7228 2.12277H4.86005C3.59148 2.12277 2.75496 2.34262 2.3027 2.79489C1.85043 3.24715 1.63058 4.08367 1.63058 5.35224V9.21498C1.63058 10.4836 1.85043 11.3201 2.3027 11.7723C2.75496 12.2246 3.59148 12.4445 4.86005 12.4445H8.7228ZM8.7228 13.7215H4.86005C1.64109 13.7215 0.353516 12.4339 0.353516 9.21498V5.35224C0.353516 2.13328 1.64109 0.845703 4.86005 0.845703H8.7228C11.9418 0.845703 13.2293 2.13328 13.2293 5.35224V9.21498C13.2293 12.4339 11.9418 13.7215 8.7228 13.7215Z" fill="#415568"/>
<path d="M4.05518 7.28288L5.87712 9.10483L9.52782 5.46094" stroke="#415568" stroke-width="1.27706" stroke-linecap="round" stroke-linejoin="round"/>
</svg>
