<svg width="23" height="23" viewBox="0 0 23 23" fill="none" xmlns="http://www.w3.org/2000/svg">
<path d="M11.2314 20.9218C13.1266 20.9218 14.9791 20.3598 16.5549 19.307C18.1306 18.2541 19.3588 16.7576 20.084 15.0067C20.8093 13.2558 20.999 11.3292 20.6293 9.47046C20.2596 7.61174 19.347 5.90439 18.0069 4.56432C16.6668 3.22425 14.9595 2.31166 13.1008 1.94193C11.242 1.57221 9.31542 1.76196 7.56454 2.4872C5.81366 3.21244 4.31716 4.44059 3.26427 6.01634C2.21139 7.59209 1.64941 9.44468 1.64941 11.3398C1.64941 13.8811 2.65894 16.3183 4.45592 18.1153C6.25289 19.9123 8.69011 20.9218 11.2314 20.9218Z" stroke="#415568" stroke-width="1.788" stroke-linecap="round" stroke-linejoin="round"/>
<path d="M21.8227 21.9311L19.8057 19.9141" stroke="#415568" stroke-width="1.788" stroke-linecap="round" stroke-linejoin="round"/>
</svg>
