<svg width="24" height="27" viewBox="0 0 24 27" fill="none" xmlns="http://www.w3.org/2000/svg">
<path d="M11.9996 10.9995C14.2309 10.9995 16.0461 9.18425 16.0461 6.953C16.0461 4.72175 14.2309 2.90649 11.9996 2.90649C9.76838 2.90649 7.95312 4.72175 7.95312 6.953C7.95312 9.18425 9.76838 10.9995 11.9996 10.9995ZM11.9996 12.9995C8.66023 12.9995 5.95312 10.2924 5.95312 6.953C5.95312 3.6136 8.66023 0.906494 11.9996 0.906494C15.339 0.906494 18.0461 3.6136 18.0461 6.953C18.0461 10.2924 15.339 12.9995 11.9996 12.9995Z" fill="#415568"/>
<path d="M22.3883 25.088C22.3883 20.408 17.7323 16.623 12.0003 16.623C6.26831 16.623 1.6123 20.413 1.6123 25.088" stroke="#415568" stroke-width="2" stroke-linecap="round"/>
</svg>
