<svg width="50" height="50" viewBox="0 0 50 50" fill="none" xmlns="http://www.w3.org/2000/svg">
<path d="M37 1H13C6.37258 1 1 6.37258 1 13V37C1 43.6274 6.37258 49 13 49H37C43.6274 49 49 43.6274 49 37V13C49 6.37258 43.6274 1 37 1Z" fill="white" stroke="#E8E8E8" stroke-width="0.5"/>
<path d="M24.9993 36.1106L26.9543 33.5039C26.9569 33.5005 26.9594 33.4972 26.962 33.4938C27.5885 32.6694 28.5775 32.1773 29.6076 32.1773H30.266C32.3373 32.1773 33.855 31.7099 34.7768 30.7881C35.6986 29.8662 36.166 28.3486 36.166 26.2773V19.6939C36.166 17.6226 35.6986 16.105 34.7768 15.1832C33.855 14.2613 32.3373 13.7939 30.266 13.7939H19.7326C17.6613 13.7939 16.1437 14.2613 15.2219 15.1832C14.3 16.105 13.8326 17.6226 13.8326 19.6939V26.2773C13.8326 28.8229 14.2553 30.4302 15.1247 31.1909C15.9043 31.8731 17.3255 32.1773 19.7326 32.1773H20.391C21.3946 32.1773 22.4607 32.7131 23.0505 33.5122L24.9993 36.1106ZM24.9993 38.2063C24.4266 38.2063 23.8538 37.9166 23.4193 37.3373L21.4443 34.7039C21.2336 34.4143 20.7465 34.1773 20.391 34.1773H19.7326C14.466 34.1773 11.8326 32.8606 11.8326 26.2773V19.6939C11.8326 14.4273 14.466 11.7939 19.7326 11.7939H30.266C35.5326 11.7939 38.166 14.4273 38.166 19.6939V26.2773C38.166 31.5439 35.5326 34.1773 30.266 34.1773H29.6076C29.1995 34.1773 28.8045 34.3748 28.5543 34.7039L26.5793 37.3373C26.1448 37.9166 25.5721 38.2063 24.9993 38.2063Z" fill="#415568"/>
<path d="M30.261 23.6445H30.274" stroke="#415568" stroke-width="2" stroke-linecap="round" stroke-linejoin="round"/>
<path d="M24.9929 23.6445H25.0059" stroke="#415568" stroke-width="2" stroke-linecap="round" stroke-linejoin="round"/>
<path d="M19.7269 23.6445H19.7379" stroke="#415568" stroke-width="2" stroke-linecap="round" stroke-linejoin="round"/>
</svg>
