<svg width="54" height="68" viewBox="0 0 54 68" fill="none" xmlns="http://www.w3.org/2000/svg">
<path d="M26.835 22.3252V41.1132" stroke="#415568" stroke-width="2" stroke-linecap="round"/>
<path opacity="0.1" d="M26.8348 67.7311C41.5349 67.7311 53.4518 55.8142 53.4518 41.1141C53.4518 26.4139 41.5349 14.4971 26.8348 14.4971C12.1346 14.4971 0.217773 26.4139 0.217773 41.1141C0.217773 55.8142 12.1346 67.7311 26.8348 67.7311Z" fill="black"/>
<path opacity="0.2" d="M26.8351 55.2035C34.6174 55.2035 40.9261 48.8947 40.9261 41.1125C40.9261 33.3302 34.6174 27.0215 26.8351 27.0215C19.0529 27.0215 12.7441 33.3302 12.7441 41.1125C12.7441 48.8947 19.0529 55.2035 26.8351 55.2035Z" fill="#415568"/>
<g filter="url(#filter0_d_2_19143)">
<path d="M26.8315 25.456C32.0197 25.456 36.2255 21.2501 36.2255 16.062C36.2255 10.8738 32.0197 6.66797 26.8315 6.66797C21.6433 6.66797 17.4375 10.8738 17.4375 16.062C17.4375 21.2501 21.6433 25.456 26.8315 25.456Z" fill="white"/>
<path d="M26.8315 24.456C31.4674 24.456 35.2255 20.6978 35.2255 16.062C35.2255 11.4261 31.4674 7.66797 26.8315 7.66797C22.1956 7.66797 18.4375 11.4261 18.4375 16.062C18.4375 20.6978 22.1956 24.456 26.8315 24.456Z" stroke="#415568" stroke-width="2"/>
</g>
<defs>
<filter id="filter0_d_2_19143" x="11.4375" y="0.667969" width="30.7881" height="30.7881" filterUnits="userSpaceOnUse" color-interpolation-filters="sRGB">
<feFlood flood-opacity="0" result="BackgroundImageFix"/>
<feColorMatrix in="SourceAlpha" type="matrix" values="0 0 0 0 0 0 0 0 0 0 0 0 0 0 0 0 0 0 127 0" result="hardAlpha"/>
<feOffset/>
<feGaussianBlur stdDeviation="3"/>
<feColorMatrix type="matrix" values="0 0 0 0 0 0 0 0 0 0 0 0 0 0 0 0 0 0 0.502 0"/>
<feBlend mode="normal" in2="BackgroundImageFix" result="effect1_dropShadow_2_19143"/>
<feBlend mode="normal" in="SourceGraphic" in2="effect1_dropShadow_2_19143" result="shape"/>
</filter>
</defs>
</svg>
