<svg width="40" height="40" viewBox="0 0 40 40" fill="none" xmlns="http://www.w3.org/2000/svg">
<path d="M26.2233 3.1133V20.8903C26.2204 21.8323 25.8449 22.7348 25.1788 23.4009C24.5128 24.0669 23.6102 24.4424 22.6683 24.4453H3.11328V13.1043C3.78564 13.8998 4.62865 14.5335 5.57964 14.9584C6.53062 15.3832 7.56514 15.5883 8.60628 15.5583C10.3294 15.5357 11.9804 14.8628 13.2283 13.6743C13.7834 13.1991 14.2473 12.6267 14.5973 11.9853C15.2582 10.8665 15.5909 9.58429 15.5573 8.28531C15.5355 7.30242 15.3092 6.33485 14.8929 5.44422C14.4766 4.55359 13.8794 3.75942 13.1393 3.1123H26.2233V3.1133Z" stroke="#20384D" stroke-width="2" stroke-linecap="round" stroke-linejoin="round"/>
<path d="M38.6673 24.4453V29.7783C38.6682 30.4789 38.5309 31.1728 38.2632 31.8202C37.9955 32.4677 37.6027 33.0559 37.1073 33.5513C36.6119 34.0467 36.0237 34.4395 35.3762 34.7072C34.7288 34.9749 34.0349 35.1122 33.3343 35.1113H31.5583C31.5583 34.1683 31.1837 33.264 30.5169 32.5972C29.8501 31.9304 28.9458 31.5558 28.0028 31.5558C27.0598 31.5558 26.1555 31.9304 25.4887 32.5972C24.8219 33.264 24.4473 34.1683 24.4473 35.1113H17.3353C17.3353 34.1683 16.9607 33.264 16.2939 32.5972C15.6271 31.9304 14.7228 31.5558 13.7798 31.5558C12.8368 31.5558 11.9325 31.9304 11.2657 32.5972C10.5989 33.264 10.2243 34.1683 10.2243 35.1113H8.44629C7.74569 35.1122 7.05179 34.9749 6.40435 34.7072C5.7569 34.4395 5.16863 34.0467 4.67323 33.5513C4.17783 33.0559 3.78504 32.4677 3.51736 31.8202C3.24968 31.1728 3.11236 30.4789 3.11329 29.7783V24.4453H22.6683C23.6102 24.4424 24.5128 24.0669 25.1788 23.4008C25.8449 22.7348 26.2204 21.8322 26.2233 20.8903V8.44629H29.4943C30.1224 8.449 30.7387 8.61671 31.2815 8.93262C31.8244 9.24853 32.2747 9.70155 32.5873 10.2463L35.6273 15.5583H33.3343C32.8637 15.5601 32.4128 15.748 32.0801 16.0809C31.7475 16.4137 31.5599 16.8647 31.5583 17.3353V22.6683C31.5596 23.1394 31.7474 23.5909 32.0805 23.9241C32.4137 24.2572 32.8651 24.445 33.3363 24.4463L38.6673 24.4453Z" stroke="#20384D" stroke-width="2" stroke-linecap="round" stroke-linejoin="round"/>
<path d="M13.7786 38.6676C14.4817 38.6676 15.1691 38.4591 15.7537 38.0685C16.3383 37.6779 16.794 37.1227 17.063 36.4731C17.3321 35.8235 17.4025 35.1087 17.2653 34.4191C17.1282 33.7295 16.7896 33.096 16.2924 32.5989C15.7952 32.1017 15.1618 31.7631 14.4722 31.6259C13.7826 31.4888 13.0678 31.5592 12.4182 31.8282C11.7686 32.0973 11.2134 32.553 10.8228 33.1376C10.4321 33.7222 10.2236 34.4095 10.2236 35.1126C10.2236 36.0555 10.5982 36.9597 11.2649 37.6264C11.9316 38.2931 12.8358 38.6676 13.7786 38.6676V38.6676Z" stroke="#20384D" stroke-width="2" stroke-linecap="round" stroke-linejoin="round"/>
<path d="M28.0013 38.6676C28.7044 38.6676 29.3917 38.4591 29.9763 38.0685C30.561 37.6779 31.0166 37.1227 31.2857 36.4731C31.5548 35.8235 31.6252 35.1087 31.488 34.4191C31.3508 33.7295 31.0122 33.096 30.5151 32.5989C30.0179 32.1017 29.3844 31.7631 28.6948 31.6259C28.0052 31.4888 27.2904 31.5592 26.6408 31.8282C25.9913 32.0973 25.436 32.553 25.0454 33.1376C24.6548 33.7222 24.4463 34.4095 24.4463 35.1126C24.4463 36.0555 24.8208 36.9597 25.4875 37.6264C26.1542 38.2931 27.0584 38.6676 28.0013 38.6676V38.6676Z" stroke="#20384D" stroke-width="2" stroke-linecap="round" stroke-linejoin="round"/>
<path d="M38.6666 20.8906V24.4456H33.3336C32.863 24.4437 32.4122 24.2559 32.0795 23.923C31.7468 23.5901 31.5592 23.1392 31.5576 22.6686V17.3356C31.5592 16.865 31.7468 16.414 32.0795 16.0812C32.4122 15.7483 32.863 15.5604 33.3336 15.5586H35.6266L38.6666 20.8906Z" stroke="#20384D" stroke-width="2" stroke-linecap="round" stroke-linejoin="round"/>
<path d="M15.5578 8.28631C15.5914 9.5853 15.2587 10.8675 14.5978 11.9863C14.2478 12.6277 13.7839 13.2001 13.2288 13.6753C11.9805 14.8636 10.3292 15.5362 8.60583 15.5583C7.56477 15.5884 6.5303 15.3835 5.57932 14.9588C4.62834 14.5342 3.78529 13.9006 3.11283 13.1053C2.86839 12.8348 2.64821 12.5434 2.45483 12.2343C1.74859 11.1547 1.36046 9.89814 1.33483 8.60831C1.29213 6.72222 2.00043 4.89642 3.3039 3.53256C4.60737 2.1687 6.39925 1.37851 8.28533 1.33581C10.1714 1.29311 11.9972 2.0014 13.3611 3.30487C14.7249 4.60835 15.5151 6.40022 15.5578 8.28631V8.28631Z" stroke="#20384D" stroke-width="2" stroke-miterlimit="10" stroke-linecap="round" stroke-linejoin="round"/>
<path d="M5.67285 8.50021L7.47285 10.2072L11.1879 6.61621" stroke="#20384D" stroke-width="2" stroke-linecap="round" stroke-linejoin="round"/>
</svg>
