<svg width="52" height="52" viewBox="0 0 52 52" fill="none" xmlns="http://www.w3.org/2000/svg">
<path d="M1.00098 16L1.00098 36C1.00098 44.2843 7.71671 51 16.001 51H36.001C44.2852 51 51.001 44.2843 51.001 36V16C51.001 7.71573 44.2852 1 36.001 1H16.001C7.71671 1 1.00098 7.71573 1.00098 16Z" fill="#E56666" stroke="#E8E8E8" stroke-width="0.5"/>
<path d="M35.2051 19.8382C31.7981 19.5002 28.3701 19.3262 24.9521 19.3262C22.9222 19.3264 20.8937 19.4288 18.8741 19.6332L16.7871 19.8332" stroke="white" stroke-width="2" stroke-linecap="round" stroke-linejoin="round"/>
<path d="M22.418 18.8056L22.643 17.4656C22.807 16.4936 22.93 15.7656 24.659 15.7656H27.34C29.069 15.7656 29.202 16.5326 29.356 17.4746L29.581 18.8046" stroke="white" stroke-width="2" stroke-linecap="round" stroke-linejoin="round"/>
<path d="M33.0052 23.0723L32.3402 33.3723C32.2272 34.9793 32.1402 36.2273 29.2802 36.2273H22.7162C19.8612 36.2273 19.7692 34.9793 19.6562 33.3723L18.9912 23.0723" stroke="white" stroke-width="2" stroke-linecap="round" stroke-linejoin="round"/>
<path d="M24.292 30.6035H27.699" stroke="white" stroke-width="2" stroke-linecap="round" stroke-linejoin="round"/>
<path d="M23.4424 26.5107H28.5584" stroke="white" stroke-width="2" stroke-linecap="round" stroke-linejoin="round"/>
</svg>
