<svg width="50" height="50" viewBox="0 0 50 50" fill="none" xmlns="http://www.w3.org/2000/svg">
<path d="M37 1H13C6.37258 1 1 6.37258 1 13V37C1 43.6274 6.37258 49 13 49H37C43.6274 49 49 43.6274 49 37V13C49 6.37258 43.6274 1 37 1Z" fill="white" stroke="#E8E8E8" stroke-width="0.5"/>
<path d="M19.855 12.1357V15.9947" stroke="#415568" stroke-width="2.218" stroke-miterlimit="10" stroke-linecap="round" stroke-linejoin="round"/>
<path d="M30.145 12.1357V15.9947" stroke="#415568" stroke-width="2.218" stroke-miterlimit="10" stroke-linecap="round" stroke-linejoin="round"/>
<path d="M14.0659 21.2559H35.9339" stroke="#415568" stroke-width="2.218" stroke-miterlimit="10" stroke-linecap="round" stroke-linejoin="round"/>
<path d="M36.577 20.4965V31.4305C36.577 35.2895 34.648 37.8625 30.145 37.8625H19.855C15.355 37.8625 13.423 35.2895 13.423 31.4305V20.4965C13.423 16.6375 15.352 14.0645 19.855 14.0645H30.145C34.648 14.0645 36.577 16.6375 36.577 20.4965Z" stroke="#415568" stroke-width="2.218" stroke-miterlimit="10" stroke-linecap="round" stroke-linejoin="round"/>
<path d="M29.7529 27.1855H29.7649" stroke="#415568" stroke-width="2.957" stroke-linecap="round" stroke-linejoin="round"/>
<path d="M29.7529 31.0449H29.7649" stroke="#415568" stroke-width="2.957" stroke-linecap="round" stroke-linejoin="round"/>
<path d="M24.994 27.1855H25.007" stroke="#415568" stroke-width="2.957" stroke-linecap="round" stroke-linejoin="round"/>
<path d="M24.994 31.0449H25.007" stroke="#415568" stroke-width="2.957" stroke-linecap="round" stroke-linejoin="round"/>
<path d="M20.233 27.1855H20.246" stroke="#415568" stroke-width="2.957" stroke-linecap="round" stroke-linejoin="round"/>
<path d="M20.233 31.0449H20.246" stroke="#415568" stroke-width="2.957" stroke-linecap="round" stroke-linejoin="round"/>
</svg>
