<svg width="49" height="50" viewBox="0 0 49 50" fill="none" xmlns="http://www.w3.org/2000/svg">
<path d="M36.5 1H12.5C5.87258 1 0.5 6.37258 0.5 13V37C0.5 43.6274 5.87258 49 12.5 49H36.5C43.1274 49 48.5 43.6274 48.5 37V13C48.5 6.37258 43.1274 1 36.5 1Z" fill="white" stroke="#E8E8E8" stroke-width="0.5"/>
<path d="M31.1775 33.3408C32.1569 33.3408 33.4955 33.1821 34.3097 32.426C34.9957 31.789 35.3435 30.6952 35.3435 29.1748V19.8261C35.3435 18.3057 34.9957 17.2118 34.3097 16.5749C33.4955 15.8188 32.1569 15.6601 31.1775 15.6601H17.8222C16.8427 15.6601 15.5042 15.8188 14.6899 16.5749C14.004 17.2118 13.6562 18.3057 13.6562 19.8261V29.1748C13.6562 30.6952 14.004 31.789 14.6899 32.426C15.5042 33.1821 16.8427 33.3408 17.8222 33.3408H31.1775ZM31.1775 35.8524H17.8222C13.8156 35.8524 11.1445 33.8491 11.1445 29.1748V19.8261C11.1445 15.1517 13.8156 13.1484 17.8222 13.1484H31.1775C35.1841 13.1484 37.8551 15.1517 37.8551 19.8261V29.1748C37.8551 33.8491 35.1841 35.8524 31.1775 35.8524Z" fill="#415568"/>
<path d="M31.1773 20.4941L27.0013 23.8331C26.2754 24.3667 25.3981 24.6544 24.4973 24.6544C23.5964 24.6544 22.7191 24.3667 21.9933 23.8331L17.8223 20.4941" stroke="#415568" stroke-width="2.512" stroke-miterlimit="10" stroke-linecap="round" stroke-linejoin="round"/>
</svg>
