<svg width="50" height="50" viewBox="0 0 50 50" fill="none" xmlns="http://www.w3.org/2000/svg">
<path d="M37.499 0.500977H12.999C6.37161 0.500977 0.999023 5.87356 0.999023 12.501V37.001C0.999023 43.6284 6.37161 49.001 12.999 49.001H37.499C44.1264 49.001 49.499 43.6284 49.499 37.001V12.501C49.499 5.87356 44.1264 0.500977 37.499 0.500977Z" fill="#F8F8F8" stroke="#E8E8E8" stroke-width="0.5"/>
<path d="M20.1611 12.9062V16.5343" stroke="#415568" stroke-width="2" stroke-miterlimit="10" stroke-linecap="round" stroke-linejoin="round"/>
<path d="M29.8364 12.9062V16.5343" stroke="#415568" stroke-width="2" stroke-miterlimit="10" stroke-linecap="round" stroke-linejoin="round"/>
<path d="M20.1617 16.7207C18.7057 16.7207 17.6476 17.0651 17.0169 17.7444C16.4186 18.3887 16.1152 19.4057 16.1152 20.7672V31.0463C16.1152 32.4078 16.4186 33.4248 17.0169 34.0691C17.6476 34.7484 18.7057 35.0928 20.1617 35.0928H29.8362C31.2922 35.0928 32.3503 34.7484 32.981 34.0691C33.5793 33.4248 33.8827 32.4078 33.8827 31.0463V20.7672C33.8827 19.4057 33.5793 18.3887 32.981 17.7444C32.3503 17.0651 31.2922 16.7207 29.8362 16.7207H20.1617ZM20.1617 14.7207H29.8362C34.0687 14.7207 35.8827 17.1393 35.8827 20.7672V31.0463C35.8827 34.6742 34.0687 37.0928 29.8362 37.0928H20.1617C15.9292 37.0928 14.1152 34.6742 14.1152 31.0463V20.7672C14.1152 17.1393 15.9292 14.7207 20.1617 14.7207Z" fill="#415568"/>
<path d="M20.1611 23.7871H29.8351" stroke="#415568" stroke-width="2" stroke-miterlimit="10" stroke-linecap="round" stroke-linejoin="round"/>
<path d="M20.1611 29.8359H24.9981" stroke="#415568" stroke-width="2" stroke-miterlimit="10" stroke-linecap="round" stroke-linejoin="round"/>
</svg>
