<svg width="21" height="24" viewBox="0 0 21 24" fill="none" xmlns="http://www.w3.org/2000/svg">
<path d="M10.5884 10.3166C12.9707 10.3166 14.9089 8.37842 14.9089 5.99607C14.9089 3.61371 12.9707 1.67552 10.5884 1.67552C8.20599 1.67552 6.26781 3.61371 6.26781 5.99607C6.26781 8.37842 8.20599 10.3166 10.5884 10.3166ZM10.5884 11.4999C7.54865 11.4999 5.08447 9.03577 5.08447 5.99607C5.08447 2.95636 7.54865 0.492188 10.5884 0.492188C13.6281 0.492188 16.0922 2.95636 16.0922 5.99607C16.0922 9.03577 13.6281 11.4999 10.5884 11.4999Z" fill="#21384E"/>
<path d="M20.0399 22.507C20.0399 18.247 15.8018 14.8018 10.5844 14.8018C5.36712 14.8018 1.12842 18.247 1.12842 22.507" stroke="#21384E" stroke-width="1.18333" stroke-linecap="round" stroke-linejoin="round"/>
</svg>
