<svg width="52" height="52" viewBox="0 0 52 52" fill="none" xmlns="http://www.w3.org/2000/svg">
<path d="M1 16L1 36C1 44.2843 7.71573 51 16 51H36C44.2843 51 51 44.2843 51 36V16C51 7.71573 44.2843 1 36 1H16C7.71573 1 1 7.71573 1 16Z" fill="#EBEBEB" stroke="#E8E8E8" stroke-width="0.5"/>
<path d="M23.5081 26.347C23.508 26.5837 23.5546 26.818 23.6452 27.0366C23.7358 27.2552 23.8686 27.4538 24.0361 27.621L28.3361 31.921C28.4292 32.0123 28.5546 32.0632 28.685 32.0625C28.8154 32.0618 28.9403 32.0097 29.0325 31.9175C29.1248 31.8253 29.1769 31.7004 29.1775 31.57C29.1782 31.4396 29.1273 31.3142 29.0361 31.221L24.7361 26.921C24.5838 26.7686 24.4983 26.562 24.4983 26.3465C24.4983 26.1311 24.5838 25.9245 24.7361 25.772L29.0361 21.472C29.0828 21.4262 29.12 21.3716 29.1455 21.3114C29.171 21.2511 29.1843 21.1864 29.1846 21.121C29.1849 21.0556 29.1723 20.9907 29.1474 20.9302C29.1225 20.8697 29.0859 20.8147 29.0396 20.7685C28.9934 20.7222 28.9384 20.6856 28.8779 20.6607C28.8174 20.6358 28.7525 20.6232 28.6871 20.6235C28.6217 20.6238 28.557 20.6371 28.4967 20.6626C28.4365 20.6881 28.3819 20.7253 28.3361 20.772L24.0361 25.07C23.8683 25.2376 23.7352 25.4367 23.6446 25.6558C23.554 25.875 23.5076 26.1099 23.5081 26.347Z" fill="#415568" stroke="#415568" stroke-width="0.5"/>
</svg>
