<svg width="26" height="27" viewBox="0 0 26 27" fill="none" xmlns="http://www.w3.org/2000/svg">
<path d="M16.0389 1.989H9.96187C9.61051 1.93565 9.25184 1.95713 8.90936 2.05203C8.56687 2.14693 8.24831 2.31312 7.97452 2.5397C7.70073 2.76629 7.4779 3.04816 7.32062 3.36685C7.16334 3.68554 7.07517 4.03386 7.06187 4.389L6.08887 9.056H19.9119L18.9349 4.385C18.921 4.0306 18.8325 3.68311 18.6752 3.36521C18.5179 3.04731 18.2954 2.76614 18.0221 2.54005C17.7488 2.31396 17.431 2.14803 17.0892 2.05308C16.7475 1.95813 16.3896 1.93629 16.0389 1.989V1.989Z" stroke="#415568" stroke-width="2" stroke-linecap="round"/>
<path d="M21.6277 16.67C21.6483 16.9114 21.6181 17.1544 21.539 17.3834C21.46 17.6124 21.334 17.8223 21.1689 17.9997C21.0039 18.177 20.8036 18.3179 20.5809 18.4132C20.3582 18.5085 20.118 18.5561 19.8757 18.553H18.2557C17.3267 18.553 17.1947 18.16 17.0287 17.659L16.8497 17.147C16.6117 16.447 16.4567 15.967 15.2057 15.967H10.7837C9.54474 15.967 9.35374 16.503 9.13974 17.147L8.96074 17.659C8.79374 18.148 8.66074 18.553 7.73374 18.553H6.11274C5.87051 18.5561 5.63031 18.5085 5.40759 18.4132C5.18487 18.3179 4.98456 18.177 4.81954 17.9997C4.65452 17.8223 4.52845 17.6124 4.44944 17.3834C4.37042 17.1544 4.34021 16.9114 4.36074 16.67L4.84974 11.406C4.96874 10.106 5.21874 9.047 7.48274 9.047H18.5007C20.7647 9.047 21.0147 10.108 21.1337 11.406L21.6227 16.673L21.6277 16.67Z" stroke="#415568" stroke-width="2" stroke-linecap="round"/>
<path d="M6.08875 6.458H5.21875" stroke="#415568" stroke-width="2" stroke-linecap="round"/>
<path d="M20.7821 6.458H19.9121" stroke="#415568" stroke-width="2" stroke-linecap="round"/>
<path d="M7.81738 12.511H10.4014" stroke="#415568" stroke-width="2" stroke-linecap="round"/>
<path d="M15.6006 12.511H18.1866" stroke="#415568" stroke-width="2" stroke-linecap="round"/>
<path d="M13.001 19.864V21.056" stroke="#415568" stroke-width="2" stroke-linecap="round"/>
<path d="M13.001 24.63V25.822" stroke="#415568" stroke-width="2" stroke-linecap="round"/>
<path d="M2.27598 21.055L1.08398 25.822" stroke="#415568" stroke-width="2" stroke-linecap="round"/>
<path d="M23.7246 21.055L24.9166 25.821" stroke="#415568" stroke-width="2" stroke-linecap="round"/>
</svg>
