<svg width="102" height="102" viewBox="0 0 102 102" fill="none" xmlns="http://www.w3.org/2000/svg">
<path d="M51.2456 100.43C78.5262 100.43 100.642 78.3143 100.642 51.0337C100.642 23.753 78.5262 1.6377 51.2456 1.6377C23.9649 1.6377 1.84961 23.753 1.84961 51.0337C1.84961 78.3143 23.9649 100.43 51.2456 100.43Z" fill="white" stroke="#99E1C7" stroke-width="1.97584"/>
<path d="M59.391 43.3111L49.0535 53.6783L43.5152 47.9029C43.2947 47.6528 43.0259 47.4499 42.725 47.3064C42.424 47.1629 42.0971 47.0819 41.764 47.0681C41.4308 47.0544 41.0984 47.1082 40.7866 47.2264C40.4749 47.3446 40.1903 47.5247 39.95 47.7559C39.7097 47.987 39.5187 48.2644 39.3885 48.5714C39.2583 48.8783 39.1916 49.2084 39.1924 49.5418C39.1932 49.8752 39.2615 50.205 39.3932 50.5114C39.5249 50.8177 39.7173 51.0941 39.9587 51.3241L45.6511 57.2516C46.0755 57.7103 46.5886 58.0782 47.1594 58.3329C47.7301 58.5876 48.3465 58.7239 48.9715 58.7335H49.0525C49.6648 58.7355 50.2715 58.6159 50.8373 58.3815C51.4031 58.1471 51.9166 57.8027 52.3482 57.3682L62.8912 46.8192C63.1268 46.5905 63.3146 46.3174 63.4437 46.0155C63.5728 45.7137 63.6406 45.3892 63.6433 45.0609C63.6459 44.7326 63.5832 44.4071 63.459 44.1033C63.3347 43.7994 63.1513 43.5233 62.9194 43.2909C62.6875 43.0585 62.4117 42.8746 62.1081 42.7497C61.8045 42.6248 61.4791 42.5616 61.1508 42.5635C60.8225 42.5655 60.4979 42.6327 60.1958 42.7612C59.8937 42.8897 59.6201 43.0769 59.391 43.3121V43.3111Z" fill="#00B374"/>
</svg>
